<?xml version="1.0" encoding="UTF-8"?>
<svg xmlns="http://www.w3.org/2000/svg" xmlns:xlink="http://www.w3.org/1999/xlink" width="150pt" height="150pt" viewBox="0 0 150 150" version="1.1">
<g id="surface1">
<path style=" stroke:none;fill-rule:nonzero;fill:rgb(0%,0%,0%);fill-opacity:1;" d="M 75.046875 39.4375 L 21.515625 83.566406 C 21.515625 83.628906 21.5 83.722656 21.46875 83.847656 C 21.441406 83.96875 21.421875 84.058594 21.421875 84.125 L 21.421875 128.8125 C 21.421875 130.425781 22.011719 131.824219 23.191406 133 C 24.371094 134.179688 25.769531 134.773438 27.382812 134.773438 L 63.128906 134.773438 L 63.128906 99.019531 L 86.964844 99.019531 L 86.964844 134.773438 L 122.714844 134.773438 C 124.328125 134.773438 125.726562 134.179688 126.90625 133 C 128.085938 131.824219 128.675781 130.425781 128.675781 128.8125 L 128.675781 84.125 C 128.675781 83.875 128.640625 83.6875 128.582031 83.566406 Z M 75.046875 39.4375 "/>
<path style=" stroke:none;fill-rule:nonzero;fill:rgb(0%,0%,0%);fill-opacity:1;" d="M 149.0625 73.511719 L 128.675781 56.566406 L 128.675781 18.582031 C 128.675781 17.714844 128.394531 17 127.835938 16.441406 C 127.277344 15.882812 126.566406 15.605469 125.695312 15.605469 L 107.820312 15.605469 C 106.949219 15.605469 106.238281 15.882812 105.675781 16.441406 C 105.121094 17 104.839844 17.714844 104.839844 18.582031 L 104.839844 36.738281 L 82.125 17.746094 C 80.140625 16.132812 77.78125 15.324219 75.050781 15.324219 C 72.320312 15.324219 69.960938 16.132812 67.976562 17.746094 L 1.035156 73.511719 C 0.414062 74.007812 0.0742188 74.675781 0.0117188 75.511719 C -0.0507812 76.351562 0.164062 77.082031 0.660156 77.703125 L 6.433594 84.59375 C 6.929688 85.148438 7.582031 85.492188 8.390625 85.617188 C 9.132812 85.679688 9.878906 85.460938 10.625 84.964844 L 75.046875 31.246094 L 139.472656 84.964844 C 139.972656 85.398438 140.621094 85.613281 141.429688 85.613281 L 141.707031 85.613281 C 142.515625 85.492188 143.164062 85.148438 143.664062 84.589844 L 149.4375 77.703125 C 149.933594 77.082031 150.148438 76.351562 150.085938 75.511719 C 150.023438 74.675781 149.679688 74.007812 149.0625 73.511719 Z M 149.0625 73.511719 "/>
</g>
</svg>
